<?xml version="1.0" encoding="utf-8"?>
<!-- Generator: Adobe Illustrator 26.0.1, SVG Export Plug-In . SVG Version: 6.00 Build 0)  -->
<svg version="1.1" id="Layer_1" xmlns="http://www.w3.org/2000/svg" xmlns:xlink="http://www.w3.org/1999/xlink" x="0px" y="0px"
	 viewBox="0 0 3350 1438" style="enable-background:new 0 0 3350 1438;" xml:space="preserve">
<style type="text/css">
	.st0{fill:#676868;}
	.st1{fill:#E41A66;}
	.st2{fill:#EA2169;}
</style>
<g>
	<g>
		<g>
			<path class="st0" d="M1190.14,277.11v-26.86l138.16-196.12h-132.16V15.97h188.34v27.55l-135.71,195.4h139.56v38.16h-198.2V277.11
				z"/>
			<path class="st0" d="M1569.28,86.63h37.44v190.45h-37.44v-26.15c-17.31,20.51-39.22,30.75-65.02,30.75
				c-27.2,0-50.17-9.56-68.19-28.98c-18.02-19.42-26.86-43.48-26.86-72.09s8.84-51.95,26.86-70.68
				c18.02-18.74,40.99-27.92,68.19-27.92c25.8,0,47.71,10.24,65.02,31.09V86.63L1569.28,86.63z M1553.75,227.28
				c11.67-12.36,17.31-27.55,17.31-45.57c0-17.68-5.66-32.87-17.31-45.22c-11.67-12.39-26.15-18.74-44.17-18.74
				s-32.87,6.35-44.17,18.74c-11.3,12.36-16.96,27.55-16.96,45.57s5.66,33.21,16.96,45.6c11.3,12.36,26.15,18.39,44.17,18.39
				C1527.6,246.02,1542.07,239.64,1553.75,227.28z"/>
			<path class="st0" d="M1785.5,86.63h42.77l-78.81,207.79c-16.96,44.88-38.5,63.59-71.03,63.59c-13.41,0-24.37-2.83-32.49-8.12
				l5.66-33.55c8.84,3.89,16.96,6.01,23.69,6.01c15.53,0,27.92-10.96,37.44-32.49l6.01-14.13l-82.7-189.05h44.88l55.84,137.45
				L1785.5,86.63z"/>
			<path class="st0" d="M1857.93,277.11V86.63h38.16v26.86c11.3-19.8,33.21-31.81,60.41-31.81c20.85,0,38.53,6.72,53.01,20.51
				c14.47,13.79,21.91,33.21,21.91,59.01v115.91h-39.22V172.16c0-34.98-18.36-54.41-45.57-54.41c-29.32,0-49.83,22.63-49.83,55.12
				v104.24H1857.93z"/>
			<path class="st0" d="M2227.88,86.63h37.44v190.45h-37.44v-26.15c-17.31,20.51-39.22,30.75-65.02,30.75
				c-27.2,0-50.17-9.56-68.19-28.98c-18.02-19.42-26.86-43.48-26.86-72.09s8.84-51.95,26.86-70.68
				c18.02-18.74,40.99-27.92,68.19-27.92c25.8,0,47.71,10.24,65.02,31.09V86.63z M2212.32,227.28
				c11.67-12.36,17.31-27.55,17.31-45.57c0-17.68-5.66-32.87-17.31-45.22c-11.67-12.39-26.15-18.74-44.17-18.74
				c-18.02,0-32.87,6.35-44.17,18.74c-11.3,12.36-16.96,27.55-16.96,45.57s5.66,33.21,16.96,45.6
				c11.3,12.36,26.15,18.39,44.17,18.39C2186.18,246.05,2200.65,239.64,2212.32,227.28z"/>
			<path class="st0" d="M2470.6,277.11h-45.22l-42.77-68.57l-43.82,68.57h-46.28l65.74-98.23l-59.01-92.22h45.22l38.88,64.3
				l40.28-64.3h45.22L2406.63,181L2470.6,277.11z"/>
		</g>
		<g>
			<path class="st0" d="M1188.49,904.09V407.52h67.85v209.66h249.31V407.52h67.2v496.57h-67.2V681.67h-249.31v222.42H1188.49z"/>
			<path class="st0" d="M2014.3,750.21h-286.94c10.74,61.16,51.08,102.81,126.34,102.81c43.01,0,92.72-16.15,125.65-40.34
				l27.55,49.05c-35.61,27.55-94.74,50.39-154.54,50.39c-135.74,0-192.17-96.08-192.17-189.49c0-54.44,16.81-98.76,50.39-134.4
				c34.27-35.61,77.94-53.1,131.69-53.1c51.08,0,92.72,16.12,125,49.05c32.93,32.93,49.05,77.28,49.05,133.03
				C2016.33,721.98,2015.64,732.75,2014.3,750.21z M1949.78,694.43c-3.36-62.5-48.37-102.15-107.51-102.15
				c-59.14,0-104.14,42.33-114.91,102.15H1949.78z"/>
			<path class="st0" d="M2377.13,543.91h61.81v360.18h-61.81v-51.08c-32.25,39.65-74.58,59.79-126.99,59.79
				c-51.73,0-94.74-18.15-129.01-55.12c-34.27-36.95-51.08-81.98-51.08-136.39c0-53.75,16.81-98.11,51.08-133.06
				c34.27-35.61,77.28-53.1,129.01-53.1c51.08,0,93.41,20.17,126.99,61.16V543.91z M2346.87,631.94
				c-22.85-24.87-52.41-37.63-89.36-37.63s-66.51,12.76-88.71,37.63c-22.16,24.87-33.61,55.78-33.61,92.07
				c0,36.29,11.42,67.2,33.61,92.07c22.16,24.87,51.73,37.63,88.71,37.63c36.95,0,66.51-12.76,89.36-37.63
				c22.85-24.87,34.27-55.78,34.27-92.75C2381.14,687.71,2369.72,656.8,2346.87,631.94z"/>
			<path class="st0" d="M2603.53,904.09h-64.52V395.42h64.52L2603.53,904.09L2603.53,904.09z"/>
			<path class="st0" d="M2938.81,882.58c-26.21,20.17-57.8,30.25-96.08,30.25c-75.91,0-114.91-49.05-114.91-135.05V599.04h-63.84
				v-55.09h64.52V416.27h63.15v127.67h127.67v55.09h-127.67v183.42c0,47.71,19.48,71.25,58.45,71.25c20.82,0,42.33-6.72,64.52-20.82
				L2938.81,882.58z"/>
			<path class="st0" d="M2990.54,904.09V395.42h62.5v192.85c22.16-32.25,65.18-53.75,114.23-53.75c39.65,0,73.24,12.76,100.78,38.97
				c27.55,26.21,40.99,63.15,40.99,112.21v218.4h-63.84V703.87c0-70.56-36.95-109.53-91.38-109.53
				c-58.45,0-98.76,45.04-98.76,109.53v200.23L2990.54,904.09L2990.54,904.09z"/>
		</g>
		<g>
			<g>
				<path class="st1" d="M162.18,203.47c6.51-8.5,13.63-16.68,21.41-24.46c20.82-20.82,44.51-37.07,69.78-48.74v530.77l98.76,98.76
					v-64.49l174.83-302.82V123.07c-27.02-27.02-58.05-47.47-91.2-61.47v304.71l-91.2,157.96V39.78
					c-80.08-5.7-162.13,22.1-223.35,83.32c-112.05,112.05-112.05,293.73,0,405.78l40.96,40.96V203.47z"/>
				<path class="st1" d="M808.12,441.2v212.3l124.66-124.66c99.16-99.16,110.56-252.83,34.24-364.54L808.12,441.2z"/>
				<path class="st1" d="M534.53,743.8l91.2-157.96V835.9l91.2-91.2V416.89L901.18,95.78c-82.64-61.66-190.92-73.05-283.02-34.14
					v355.26L443.33,719.71v131.25l83.66,83.66l7.53-7.53L534.53,743.8L534.53,743.8z"/>
			</g>
			<g>
				<path class="st2" d="M808.12,653.54l124.66-124.66c37.91-37.91,62.93-83.79,75.2-132.25c-27.39-47.15-61.78-89.76-101.78-126.37
					L808.12,441.2V653.54z"/>
				<path class="st2" d="M443.33,719.71v131.25l83.66,83.66l7.53-7.53V743.8l91.2-157.96V835.9l91.2-91.2V416.89l116.35-202.75
					c-63.74-40.87-136.73-68.54-215.1-79.28v282.05L443.33,719.71z"/>
			</g>
		</g>
		<g>
			<circle class="st1" cx="3247.88" cy="1020.28" r="57.99"/>
			<circle class="st1" cx="3122.32" cy="1020.28" r="44.04"/>
			<circle class="st2" cx="3025.18" cy="1020.28" r="31.47"/>
		</g>
	</g>
	<g>
		<g>
			<path class="st0" d="M38.83,1379.79v-135.13h25.05v54.68h59.25v-54.68h25.05v135.13h-25.05v-56.32H63.88v56.32H38.83z"/>
			<path class="st0" d="M348.21,1338.65h-75.7c3.11,13.71,13.35,22.86,30.35,22.86c12.07,0,23.04-3.47,32.73-10.24l9.51,17.01
				c-12.25,9.14-26.7,13.71-43.16,13.71c-37.3,0-53.76-25.6-53.76-51.93c0-14.99,4.75-27.43,14.26-37.12
				c9.69-9.87,22.13-14.81,37.3-14.81c14.45,0,26.15,4.57,35.29,13.53c9.33,8.96,13.9,21.03,13.9,36.39
				C348.94,1330.78,348.76,1334.26,348.21,1338.65z M272.51,1320.54h53.03c-2.01-13.9-12.07-22.49-25.78-22.49
				C285.86,1298.05,275.62,1306.64,272.51,1320.54z"/>
			<path class="st0" d="M522.64,1280.49h22.67v99.3h-22.67v-12.25c-8.6,9.69-19.38,14.63-32.37,14.63
				c-14.26,0-25.96-4.93-35.29-14.99c-9.33-10.06-13.9-22.67-13.9-37.49c0-14.81,4.57-27.25,13.9-36.94
				c9.33-9.69,21.21-14.63,35.29-14.63c12.62,0,23.41,4.94,32.37,14.99V1280.49z M514.96,1308.65c-5.49-5.85-12.44-8.78-21.03-8.78
				c-8.59,0-15.54,2.93-21.03,8.78c-5.3,5.85-8.05,12.98-8.05,21.4c0,8.6,2.74,15.73,8.05,21.58c5.49,5.85,12.44,8.78,21.03,8.78
				c8.6,0,15.54-2.92,21.03-8.78c5.49-5.85,8.23-12.98,8.23-21.58C523.19,1321.64,520.45,1314.51,514.96,1308.65z"/>
			<path class="st0" d="M672.38,1379.79h-23.77v-138.97h23.77V1379.79z"/>
			<path class="st0" d="M845.9,1373.94c-7.86,5.48-17.55,8.23-28.71,8.23c-22.49,0-34.01-13.35-34.01-38.77v-42.79h-16.46v-20.12
				h16.82v-35.11h23.59v35.11h33.28v20.12h-33.28v41.88c0,11.89,4.75,17.92,14.44,17.92c5.49,0,11.16-1.65,16.82-5.12L845.9,1373.94
				z"/>
			<path class="st0" d="M937.5,1379.79v-138.97h23.22v52.48c5.67-8.96,17.37-15.36,31.45-15.36c10.79,0,19.75,3.66,27.25,10.79
				c7.5,7.14,11.34,17.19,11.34,30.54v60.53h-23.77v-54.13c0-16.64-8.59-25.96-21.76-25.96c-14.08,0-23.95,10.79-23.95,26.33v53.76
				H937.5z"/>
			<path class="st0" d="M1260.4,1379.79v-135.13h88.32v23.77h-63.45v32.55h55.59v23.77h-55.59v55.04H1260.4z"/>
			<path class="st0" d="M1451.29,1293.11c10.06-10.06,22.67-15.18,38.22-15.18s28.16,5.12,38.04,15.18
				c10.06,10.06,14.99,22.31,14.99,36.94c0,14.81-4.94,27.25-14.99,37.3c-9.87,10.06-22.49,14.99-38.04,14.99
				s-28.16-4.93-38.22-14.99c-9.87-10.06-14.81-22.49-14.81-37.3C1436.48,1315.42,1441.41,1303.17,1451.29,1293.11z
				 M1510.17,1308.84c-5.67-5.85-12.44-8.78-20.66-8.78c-8.23,0-14.99,2.93-20.66,8.78c-5.67,5.85-8.41,12.98-8.41,21.21
				c0,8.41,2.74,15.54,8.41,21.39c5.67,5.85,12.44,8.78,20.66,8.78c8.23,0,15-2.92,20.66-8.78c5.67-5.85,8.41-12.98,8.41-21.39
				C1518.58,1321.82,1515.84,1314.69,1510.17,1308.84z"/>
			<path class="st0" d="M1640.16,1379.79v-99.3h22.86v13.72c6.03-10.79,15.36-16.28,27.61-16.28c4.21,0,8.23,0.73,11.89,2.01
				l-2.01,22.86c-4.02-1.28-7.86-2.01-11.52-2.01c-14.81,0-25.05,9.88-25.05,30.54v48.46H1640.16z"/>
			<path class="st0" d="M1917.35,1379.79v-135.13h89.79v23.41h-64.73v31.81h59.8v23.23h-59.8v33.28h64.73v23.41H1917.35z"/>
			<path class="st0" d="M2174.07,1280.49h26.15l-43.34,99.11h-17.92l-43.16-99.11h26.33l26.15,66.56L2174.07,1280.49z"/>
			<path class="st0" d="M2382.7,1338.65h-75.71c3.11,13.71,13.35,22.86,30.35,22.86c12.07,0,23.04-3.47,32.73-10.24l9.51,17.01
				c-12.25,9.14-26.7,13.71-43.16,13.71c-37.3,0-53.76-25.6-53.76-51.93c0-14.99,4.76-27.43,14.27-37.12
				c9.69-9.87,22.12-14.81,37.3-14.81c14.44,0,26.15,4.57,35.29,13.53c9.33,8.96,13.9,21.03,13.9,36.39
				C2383.43,1330.78,2383.24,1334.26,2382.7,1338.65z M2306.99,1320.54h53.03c-2.01-13.9-12.07-22.49-25.78-22.49
				C2320.34,1298.05,2310.1,1306.64,2306.99,1320.54z"/>
			<path class="st0" d="M2480.87,1379.79v-99.3h22.86v13.72c6.04-10.79,15.36-16.28,27.61-16.28c4.21,0,8.23,0.73,11.89,2.01
				l-2.01,22.86c-4.02-1.28-7.86-2.01-11.52-2.01c-14.81,0-25.05,9.88-25.05,30.54v48.46H2480.87z"/>
			<path class="st0" d="M2706.69,1280.49h25.97l-40.23,105.69c-9.51,24.32-21.58,35.84-40.41,35.84c-7.5,0-13.72-1.64-18.29-4.76
				l3.84-20.11c4.57,2.19,8.78,3.29,12.62,3.29c7.86,0,14.44-5.3,19.38-16.09l2.38-5.49l-43.33-98.38h27.61l26.88,67.11
				L2706.69,1280.49z"/>
			<path class="st0" d="M2830.65,1293.11c10.06-10.06,22.67-15.18,38.22-15.18s28.16,5.12,38.03,15.18
				c10.06,10.06,14.99,22.31,14.99,36.94c0,14.81-4.94,27.25-14.99,37.3c-9.87,10.06-22.49,14.99-38.03,14.99
				s-28.16-4.93-38.22-14.99c-9.88-10.06-14.81-22.49-14.81-37.3C2815.84,1315.42,2820.78,1303.17,2830.65,1293.11z
				 M2889.53,1308.84c-5.67-5.85-12.43-8.78-20.66-8.78s-14.99,2.93-20.66,8.78c-5.67,5.85-8.41,12.98-8.41,21.21
				c0,8.41,2.74,15.54,8.41,21.39c5.67,5.85,12.44,8.78,20.66,8.78s14.99-2.92,20.66-8.78c5.67-5.85,8.41-12.98,8.41-21.39
				C2897.95,1321.82,2895.2,1314.69,2889.53,1308.84z"/>
			<path class="st0" d="M3019.53,1379.79v-99.3h23.41v13.9c5.3-10.06,16.82-16.46,31.27-16.46c10.79,0,20.12,3.66,27.61,10.79
				c7.5,7.14,11.34,17.19,11.34,30.54v60.53h-23.96v-53.94c0-16.64-8.6-26.15-21.76-26.15c-14.08,0-24.14,10.97-24.14,26.51v53.58
				H3019.53z"/>
			<path class="st0" d="M3309.71,1338.65H3234c3.11,13.71,13.35,22.86,30.35,22.86c12.07,0,23.04-3.47,32.73-10.24l9.51,17.01
				c-12.25,9.14-26.7,13.71-43.16,13.71c-37.3,0-53.76-25.6-53.76-51.93c0-14.99,4.76-27.43,14.27-37.12
				c9.69-9.87,22.12-14.81,37.3-14.81c14.44,0,26.15,4.57,35.29,13.53c9.33,8.96,13.9,21.03,13.9,36.39
				C3310.43,1330.78,3310.25,1334.26,3309.71,1338.65z M3234,1320.54h53.03c-2.01-13.9-12.07-22.49-25.78-22.49
				C3247.35,1298.05,3237.11,1306.64,3234,1320.54z"/>
		</g>
	</g>
</g>
</svg>
