<svg width="50" height="50" viewBox="0 0 50 50" fill="none" xmlns="http://www.w3.org/2000/svg">
<circle cx="25" cy="25" r="25" fill="#F3F3F3"/>
<path d="M33.6663 34.75V32.5833C33.6663 31.4341 33.2098 30.3319 32.3971 29.5192C31.5845 28.7065 30.4823 28.25 29.333 28.25H20.6663C19.5171 28.25 18.4149 28.7065 17.6022 29.5192C16.7896 30.3319 16.333 31.4341 16.333 32.5833V34.75" stroke="#1A2942" stroke-width="2" stroke-linecap="round" stroke-linejoin="round"/>
<path d="M25.0003 23.9167C27.3936 23.9167 29.3337 21.9766 29.3337 19.5833C29.3337 17.1901 27.3936 15.25 25.0003 15.25C22.6071 15.25 20.667 17.1901 20.667 19.5833C20.667 21.9766 22.6071 23.9167 25.0003 23.9167Z" stroke="#1A2942" stroke-width="2" stroke-linecap="round" stroke-linejoin="round"/>
</svg>
